<?xml version="1.0" encoding="utf-8"?>
<!-- Generator: Adobe Illustrator 23.0.1, SVG Export Plug-In . SVG Version: 6.00 Build 0)  -->
<svg version="1.1" id="图层_1" xmlns="http://www.w3.org/2000/svg" xmlns:xlink="http://www.w3.org/1999/xlink" x="0px" y="0px"
	 viewBox="0 0 24 24" style="enable-background:new 0 0 24 24;" xml:space="preserve">
<style type="text/css">
	.st0{fill:#182431;}
</style>
<title>收藏（线性）</title>
<path class="st0" d="M12.8,1.6c0.3,0.2,0.6,0.4,0.8,0.8l2,4.1C15.7,6.8,16,7,16.3,7.1l4.5,0.7c1,0.1,1.6,1,1.5,2
	c-0.1,0.4-0.2,0.7-0.5,1l-3.3,3.2c-0.2,0.2-0.3,0.6-0.3,0.9l0.8,4.5c0.2,1-0.5,1.9-1.4,2c-0.4,0.1-0.8,0-1.1-0.2l-3.1-1.6
	c0.5-0.3,0.9-0.6,1.4-1l2.4,1.2c0,0,0.1,0,0.2,0c0.1,0,0.2-0.1,0.2-0.3l0,0l-0.7-4.3c-0.6,0.5-1.2,0.9-1.7,1.3l-0.9,0.6l0,0
	l-0.9,0.6c-0.6,0.4-1.2,0.8-1.8,1.2l-0.9,0.6l0,0l-3,1.6c-0.2,0.1-0.5,0.2-0.7,0.2l-0.1,0c-0.6,0-1.2-0.4-1.5-0.9
	C5,20,4.9,19.7,5,19.3l0.8-4.5c0.1-0.3-0.1-0.7-0.3-0.9l-3.3-3.2c-0.7-0.7-0.7-1.8,0-2.5c0.3-0.3,0.6-0.5,1-0.5l4.5-0.7
	C8,7,8.3,6.8,8.4,6.5l2-4.1C10.9,1.6,11.9,1.2,12.8,1.6z M12,3L12,3C11.9,3,11.9,3,12,3L12,3C11.9,3,11.9,3,12,3L12,3
	c-0.1,0-0.1,0-0.1,0L12,3C11.9,3,11.8,3,11.8,3l0,0c0,0,0,0,0,0l0,0l-2,4.1C9.7,7.4,9.5,7.6,9.4,7.7c0,0,0,0,0,0c0,0,0,0.1-0.1,0.1
	c0,0,0,0-0.1,0.1c0,0,0,0-0.1,0.1c0,0-0.1,0-0.1,0.1c0,0,0,0-0.1,0c0,0-0.1,0-0.1,0.1c0,0,0,0-0.1,0c0,0-0.1,0-0.1,0.1
	c0,0-0.1,0-0.1,0c0,0-0.1,0-0.1,0c0,0-0.1,0-0.1,0c0,0-0.1,0-0.1,0c0,0,0,0-0.1,0c0,0-0.1,0-0.1,0c0,0-0.1,0-0.1,0c0,0-0.1,0-0.1,0
	c0,0,0,0,0,0L8,8.5c0,0,0,0,0,0l-0.1,0L3.4,9.2c-0.1,0-0.1,0-0.1,0.1l0,0.1c0,0,0,0,0,0c0,0,0,0,0,0l0,0c0,0,0,0,0,0.1l0,0
	c0,0,0,0,0,0.1l0,0c0,0,0,0,0,0.1l0,0c0,0,0,0,0,0.1l0,0c0,0,0,0,0,0.1l0,0c0,0,0,0,0,0.1l0,0l3.3,3.2c0.2,0.2,0.3,0.4,0.4,0.6
	c0,0,0,0,0,0.1c0,0,0,0.1,0,0.1c0,0,0,0,0,0.1c0,0,0,0.1,0,0.1c0,0,0,0,0,0.1c0,0,0,0.1,0,0.1c0,0,0,0.1,0,0.1c0,0,0,0,0,0.1
	c0,0,0,0.1,0,0.1c0,0,0,0.1,0,0.1c0,0,0,0,0,0c0,0,0,0.1,0,0.1c0,0,0,0,0,0c0,0,0,0.1,0,0.1c0,0,0,0.1,0,0.1c0,0,0,0.1,0,0.1
	c0,0,0,0,0,0l0,0c0,0,0,0,0,0.1l0,0.1l-0.8,4.5c0,0.1,0,0.1,0,0.2c0,0,0,0.1,0.1,0.1c0,0,0,0,0,0l0,0c0,0,0,0,0.1,0l0,0
	c0,0,0,0,0.1,0l0,0c0,0,0,0,0.1,0l0,0c0,0,0.1,0,0.1,0l0,0c0,0,0,0,0.1,0l0,0l0.3-0.2l2.7-1.4l0.9-0.5c1.2-0.7,2.4-1.5,3.5-2.4
	c1.2-0.9,2.5-1.9,3.7-2.9l0.6-0.5l2.3-2.2c0,0,0.1-0.1,0.1-0.1l0-0.1c0,0,0,0,0,0c0,0,0,0,0,0l0,0c0,0,0,0,0-0.1l0,0c0,0,0,0,0-0.1
	l0,0c0,0,0,0,0-0.1l0,0c0,0,0,0,0,0l0,0c0,0,0,0,0,0l0,0c0,0,0,0-0.1,0l0,0c0,0,0,0-0.1,0l0,0l-4.5-0.7c-0.1,0-0.2,0-0.3-0.1
	c0,0,0,0-0.1,0c0,0-0.1,0-0.1,0c0,0-0.1,0-0.1,0c0,0,0,0-0.1,0c0,0-0.1,0-0.1,0c0,0-0.1,0-0.1,0c0,0,0,0-0.1,0c0,0-0.1,0-0.1-0.1
	c0,0,0,0-0.1,0c0,0-0.1,0-0.1-0.1c0,0,0,0-0.1-0.1c0,0,0,0-0.1-0.1c0,0-0.1,0-0.1-0.1c0,0,0,0-0.1,0c0,0-0.1,0-0.1-0.1
	c0,0,0,0,0-0.1c0,0-0.1-0.1-0.1-0.1c0,0,0,0,0,0c0,0-0.1-0.1-0.1-0.1c0,0,0,0,0,0c0,0,0-0.1-0.1-0.1c0,0,0,0,0,0l0,0c0,0,0,0,0,0
	l0-0.1l-2-4.1c0,0-0.1-0.1-0.1-0.1l0,0L12,3C12,3,12,3,12,3C12,3,12,3,12,3z"/>
</svg>
