<?xml version="1.0" encoding="utf-8"?>
<!-- Generator: Adobe Illustrator 23.0.1, SVG Export Plug-In . SVG Version: 6.00 Build 0)  -->
<svg version="1.1" id="图层_1" xmlns="http://www.w3.org/2000/svg" xmlns:xlink="http://www.w3.org/1999/xlink" x="0px" y="0px"
	 viewBox="0 0 24 24" style="enable-background:new 0 0 24 24;" xml:space="preserve">
<style type="text/css">
	.st0{fill:#182431;}
</style>
<title>删除</title>
<path class="st0" d="M5.6,7.5l1.1,11c0.1,1.1,1,2,2.2,2l0.1,0H15c1.1,0,2.1-0.8,2.2-2l0-0.1l0.9-9.2l0.2-1.8h1.5l-0.2,1.9l-0.9,9.2
	C18.6,20.5,17,22,15.1,22L15,22H9c-1.9,0-3.5-1.4-3.7-3.3l0-0.1L4.1,7.5H5.6z M10.2,11.7c0.4,0,0.8,0.3,0.8,0.8v6
	c0,0.4-0.3,0.8-0.8,0.8s-0.8-0.3-0.8-0.8v-6C9.5,12.1,9.8,11.7,10.2,11.7z M13.8,11.7c0.4,0,0.8,0.3,0.8,0.8v6
	c0,0.4-0.3,0.8-0.8,0.8S13,18.9,13,18.5v-6C13,12.1,13.3,11.7,13.8,11.7z M12,1.7c1.8,0,3.2,1.4,3.2,3.2l0,0.1H21
	c0.4,0,0.8,0.3,0.8,0.8c0,0.4-0.3,0.7-0.7,0.7l0,0h-6.5c-0.4,0-0.7-0.3-0.7-0.7l0,0V5c0-1-0.8-1.7-1.8-1.7c-0.9,0-1.7,0.8-1.7,1.7
	l0,0.1v0.8c0,0.4-0.3,0.7-0.7,0.7l0,0H2.8C2.3,6.5,2,6.2,2,5.7C2,5.4,2.3,5,2.7,5l0,0h6C8.8,3.2,10.2,1.7,12,1.7z"/>
</svg>
