<svg id="图层_1" data-name="图层 1" xmlns="http://www.w3.org/2000/svg" fill="#182431" viewBox="0 0 24 24"><defs><style>.cls-1{fill-rule:evenodd;}</style></defs><title>笔记本</title><rect x="7.25" y="1" width="1.5" height="22"/><path class="cls-1" d="M17,2.5H7A2.5,2.5,0,0,0,4.5,5V19A2.5,2.5,0,0,0,7,21.5H17A2.5,2.5,0,0,0,19.5,19V5A2.5,2.5,0,0,0,17,2.5ZM17,1a4,4,0,0,1,4,4V19a4,4,0,0,1-4,4H7a4,4,0,0,1-4-4V5A4,4,0,0,1,7,1Z"/><path class="cls-1" d="M16.5,6.959l-.96254-.65254-.179-.12136-.1777.123-.93078.6441V2.25H16.5Zm.9375-5.709h-4.125a.57592.57592,0,0,0-.5625.58853V8.59784a.38405.38405,0,0,0,.37641.393.359.359,0,0,0,.21806-.07484l1.75285-1.02878a.5.5,0,0,1,.50272-.002l1.80849,1.04207A.35912.35912,0,0,0,17.62369,9,.3841.3841,0,0,0,18,8.607V1.83853Q18,1.51347,17.4375,1.25Z"/></svg>